<?xml version="1.0" encoding="utf-8"?>
<!-- Generator: Adobe Illustrator 28.0.0, SVG Export Plug-In . SVG Version: 6.00 Build 0)  -->
<svg version="1.1" id="Layer_1" xmlns="http://www.w3.org/2000/svg" xmlns:xlink="http://www.w3.org/1999/xlink" x="0px" y="0px"
	 viewBox="0 0 254 59.1" style="enable-background:new 0 0 254 59.1;" xml:space="preserve">
<style type="text/css">
	.st0{fill:#2E3192;}
	.st1{fill:#FF1D25;}
	.st2{fill:#FFFFFF;}
	.st3{fill:#ABE1FA;}
	.st4{fill:#414099;}
	.st5{fill:#EE3135;}
	.st6{fill:#FFF200;}
	.st7{fill:#B3B3B3;}
</style>
<g>
	<g>
		<path class="st0" d="M70.8,22.9h1.6v5.7h3.5v1.3h-5.1V22.9z"/>
		<path class="st0" d="M76.8,22.9h1.6v7h-1.6V22.9z"/>
		<path class="st0" d="M85.5,28.6v1.3h-5.4v-7h5.3v1.3h-3.7v1.5H85v1.3h-3.2v1.6H85.5z M83.6,22.3l-0.9-0.8l-0.9,0.8h-1.1l1.3-1.4
			h1.4l1.3,1.4H83.6z"/>
		<path class="st0" d="M93.2,22.9v7h-1.3l-3.5-4.2v4.2h-1.6v-7h1.3l3.5,4.2v-4.2H93.2z"/>
		<path class="st0" d="M104.1,29.9l0-4.2l-2.1,3.5h-0.7l-2-3.4v4.1h-1.5v-7h1.3l2.6,4.4l2.6-4.4h1.3l0,7H104.1z"/>
		<path class="st0" d="M107.3,22.9h1.6v7h-1.6V22.9z"/>
		<path class="st0" d="M117,22.9v7h-1.3l-3.5-4.2v4.2h-1.6v-7h1.3l3.5,4.2v-4.2H117z"/>
		<path class="st0" d="M125.1,22.9v7h-1.6V27h-3.2v2.9h-1.6v-7h1.6v2.8h3.2v-2.8H125.1z"/>
		<path class="st0" d="M136,22.9v7h-1.6V27h-3.2v2.9h-1.6v-7h1.6v2.8h3.2v-2.8H136z"/>
		<path class="st0" d="M144.5,24.9c0.2,0.5,0.3,1,0.3,1.5c0,0.7-0.2,1.3-0.5,1.9c-0.3,0.5-0.8,1-1.4,1.3c-0.6,0.3-1.2,0.5-2,0.5
			c-0.7,0-1.4-0.2-2-0.5c-0.6-0.3-1-0.7-1.4-1.3c-0.3-0.5-0.5-1.2-0.5-1.9s0.2-1.3,0.5-1.9c0.3-0.5,0.8-1,1.4-1.3s1.3-0.5,2-0.5
			c0.3,0,0.7,0,1.1,0.1c0.3,0,0.6,0.1,0.7,0.1c0.3,0,0.5-0.1,0.6-0.2c0.1-0.1,0.2-0.3,0.2-0.5c0-0.2-0.1-0.4-0.2-0.6l0.9-0.3
			c0.2,0.3,0.3,0.6,0.3,1s-0.1,0.7-0.3,0.9c-0.2,0.2-0.5,0.4-0.8,0.5C144,24,144.3,24.4,144.5,24.9z M142.1,28.3
			c0.3-0.2,0.6-0.5,0.8-0.8c0.2-0.3,0.3-0.7,0.3-1.2c0-0.4-0.1-0.8-0.3-1.2c-0.2-0.3-0.5-0.6-0.8-0.8s-0.7-0.3-1.1-0.3
			c-0.4,0-0.8,0.1-1.1,0.3c-0.3,0.2-0.6,0.5-0.8,0.8c-0.2,0.3-0.3,0.7-0.3,1.2c0,0.4,0.1,0.8,0.3,1.2c0.2,0.3,0.5,0.6,0.8,0.8
			c0.3,0.2,0.7,0.3,1.1,0.3C141.4,28.6,141.8,28.5,142.1,28.3z M140.5,31.8c-0.1-0.1-0.2-0.3-0.2-0.5c0-0.2,0.1-0.4,0.2-0.5
			c0.1-0.1,0.3-0.2,0.5-0.2c0.2,0,0.4,0.1,0.5,0.2c0.1,0.1,0.2,0.3,0.2,0.5c0,0.2-0.1,0.4-0.2,0.5c-0.1,0.1-0.3,0.2-0.5,0.2
			C140.8,32,140.6,31.9,140.5,31.8z"/>
		<path class="st0" d="M150.7,23.2c0.5,0.2,0.8,0.5,1.1,0.9s0.4,0.8,0.4,1.4c0,0.5-0.1,1-0.4,1.3c-0.2,0.4-0.6,0.7-1.1,0.9
			c-0.5,0.2-1,0.3-1.6,0.3h-1.4v1.9h-1.6v-7h3C149.7,22.9,150.3,23,150.7,23.2z M150.1,26.3c0.3-0.2,0.4-0.5,0.4-0.9
			c0-0.4-0.1-0.7-0.4-0.9c-0.3-0.2-0.6-0.3-1.1-0.3h-1.3v2.4h1.3C149.5,26.6,149.9,26.5,150.1,26.3z"/>
		<path class="st0" d="M157.7,24.2h-2.2v-1.3h6.1v1.3h-2.2v5.7h-1.6V24.2z"/>
		<path class="st0" d="M166.7,28.4h-3.2l-0.6,1.5h-1.7l3.1-7h1.6l3.1,7h-1.7L166.7,28.4z M166.1,27.1l-1.1-2.7l-1.1,2.7H166.1z
			 M165.5,20.9h1.7l-1.8,1.4h-1.2L165.5,20.9z"/>
		<path class="st0" d="M171,29.5c-0.6-0.3-1-0.7-1.4-1.3c-0.3-0.6-0.5-1.2-0.5-1.9s0.2-1.3,0.5-1.9c0.3-0.5,0.8-1,1.4-1.3
			c0.6-0.3,1.2-0.5,1.9-0.5c0.6,0,1.2,0.1,1.6,0.3c0.5,0.2,0.9,0.5,1.2,0.9l-1,1c-0.5-0.5-1.1-0.8-1.8-0.8c-0.4,0-0.8,0.1-1.2,0.3
			c-0.3,0.2-0.6,0.5-0.8,0.8c-0.2,0.3-0.3,0.7-0.3,1.2c0,0.4,0.1,0.8,0.3,1.2c0.2,0.3,0.5,0.6,0.8,0.8c0.3,0.2,0.7,0.3,1.2,0.3
			c0.7,0,1.3-0.3,1.8-0.8l1,1c-0.3,0.4-0.7,0.7-1.2,0.9c-0.5,0.2-1,0.3-1.6,0.3C172.2,30,171.6,29.8,171,29.5z"/>
		<path class="st0" d="M184.2,29.9l-1.7-2.4l-1.7,2.4H179l2.6-3.6l-2.5-3.4h1.8l1.6,2.3l1.6-2.3h1.8l-2.4,3.4l2.6,3.6H184.2z"/>
		<path class="st0" d="M191.2,28.4h-3.2l-0.6,1.5h-1.7l3.1-7h1.6l3.1,7h-1.7L191.2,28.4z M189.8,22.2c-0.1-0.1-0.3-0.2-0.5-0.3
			c-0.1-0.1-0.2-0.1-0.3-0.2c-0.1,0-0.1-0.1-0.2-0.1c-0.1,0-0.3,0-0.3,0.1c-0.1,0.1-0.1,0.2-0.1,0.4h-0.8c0-0.4,0.1-0.8,0.3-1.1
			c0.2-0.3,0.5-0.4,0.8-0.4c0.2,0,0.3,0,0.5,0.1c0.1,0.1,0.3,0.2,0.5,0.3c0.1,0.1,0.2,0.1,0.3,0.2c0.1,0,0.1,0.1,0.2,0.1
			c0.1,0,0.2,0,0.3-0.1c0.1-0.1,0.1-0.2,0.1-0.4h0.8c0,0.4-0.1,0.8-0.3,1c-0.2,0.3-0.5,0.4-0.8,0.4C190.1,22.3,190,22.3,189.8,22.2z
			 M190.6,27.1l-1.1-2.7l-1.1,2.7H190.6z"/>
		<path class="st0" d="M203.8,22.9l-3,7h-1.6l-3-7h1.8l2.1,5l2.2-5H203.8z"/>
		<path class="st0" d="M204.3,22.9h1.6v7h-1.6V22.9z"/>
		<path class="st0" d="M213,28.6v1.3h-5.4v-7h5.3v1.3h-3.7v1.5h3.2v1.3h-3.2v1.6H213z M211.1,22.3l-0.9-0.8l-0.9,0.8h-1.1l1.3-1.4
			h1.4l1.3,1.4H211.1z M209.8,31.8c-0.1-0.1-0.2-0.3-0.2-0.5c0-0.2,0.1-0.4,0.2-0.5c0.1-0.1,0.3-0.2,0.5-0.2c0.2,0,0.4,0.1,0.5,0.2
			c0.1,0.1,0.2,0.3,0.2,0.5c0,0.2-0.1,0.4-0.2,0.5c-0.1,0.1-0.3,0.2-0.5,0.2C210.1,32,210,31.9,209.8,31.8z"/>
		<path class="st0" d="M215.8,24.2h-2.2v-1.3h6.1v1.3h-2.2v5.7h-1.6V24.2z"/>
		<path class="st0" d="M229.8,22.9v7h-1.3l-3.5-4.2v4.2h-1.6v-7h1.3l3.5,4.2v-4.2H229.8z"/>
		<path class="st0" d="M236,28.4h-3.2l-0.6,1.5h-1.7l3.1-7h1.6l3.1,7h-1.7L236,28.4z M235.5,27.1l-1.1-2.7l-1.1,2.7H235.5z"/>
		<path class="st0" d="M245.5,29.9l0-4.2l-2.1,3.5h-0.7l-2-3.4v4.1h-1.5v-7h1.3l2.6,4.4l2.6-4.4h1.3l0,7H245.5z"/>
		<path class="st1" d="M98.6,47.9c-0.8-0.7-1.1-1.8-1.1-3.1v-5h2.6v5c0,1.5,0.6,2.2,1.7,2.2c1.1,0,1.7-0.7,1.7-2.2v-5h2.5v5
			c0,1.4-0.4,2.4-1.1,3.1c-0.8,0.7-1.8,1.1-3.2,1.1S99.3,48.7,98.6,47.9z M101.5,38.4c0.2-0.1,0.4-0.2,0.5-0.4
			c0.1-0.1,0.1-0.3,0.1-0.4c0-0.2-0.1-0.3-0.2-0.4c-0.1-0.1-0.2-0.1-0.4-0.1c-0.3,0-0.5,0.1-0.8,0.3l-0.5-1c0.2-0.2,0.4-0.3,0.7-0.4
			s0.5-0.1,0.8-0.1c0.5,0,0.9,0.1,1.2,0.4s0.5,0.6,0.5,1.1c0,0.8-0.4,1.3-1.3,1.7L101.5,38.4z"/>
		<path class="st1" d="M112.5,45.6v3.3h-2.6v-3.3l-3.5-5.8h2.7l2.2,3.6l2.2-3.6h2.5L112.5,45.6z"/>
		<path class="st1" d="M128.6,45c0.3,0.4,0.4,0.9,0.4,1.4c0,0.8-0.3,1.4-1,1.8c-0.6,0.4-1.6,0.6-2.8,0.6h-4.9v-9.1h4.7
			c1.2,0,2,0.2,2.7,0.6c0.6,0.4,0.9,1,0.9,1.7c0,0.4-0.1,0.8-0.3,1.2c-0.2,0.3-0.5,0.6-0.9,0.8C127.9,44.3,128.3,44.6,128.6,45z
			 M122.9,41.6v1.8h1.8c0.9,0,1.3-0.3,1.3-0.9c0-0.6-0.4-0.9-1.3-0.9H122.9z M126.5,46.1c0-0.6-0.5-0.9-1.4-0.9h-2.2V47h2.2
			C126,47,126.5,46.7,126.5,46.1z"/>
		<path class="st1" d="M136.5,47.1h-3.8l-0.7,1.8h-2.6l4-9.1h2.5l4,9.1h-2.7L136.5,47.1z M135.7,45.2l-1.2-2.9l-1.2,2.9H135.7z"/>
		<path class="st1" d="M149.3,39.8v9.1h-2.1l-4-4.8v4.8h-2.5v-9.1h2.1l4,4.8v-4.8H149.3z"/>
		<path class="st1" d="M158.4,45.6l-1,1v2.3h-2.5v-9.1h2.5v3.8l3.5-3.8h2.8l-3.7,4l3.9,5.1h-3L158.4,45.6z"/>
		<path class="st1" d="M164.6,39.8h2.6v9.1h-2.6V39.8z"/>
		<path class="st1" d="M176.4,46.9v2h-7.3v-9.1h7.1v2h-4.6v1.5h4v1.9h-4v1.7H176.4z M173.7,39l-1.1-0.8l-1.1,0.8h-1.7l1.7-1.6h2.1
			l1.7,1.6H173.7z M174.6,37.5c0.3-0.2,0.5-0.3,0.5-0.5c0-0.1,0-0.2-0.1-0.3c-0.1-0.1-0.2-0.1-0.3-0.1c-0.2,0-0.4,0.1-0.6,0.2
			l-0.4-0.7c0.3-0.2,0.7-0.3,1.2-0.3c0.4,0,0.7,0.1,0.9,0.3c0.2,0.2,0.4,0.5,0.4,0.8c0,0.3-0.1,0.5-0.3,0.7
			c-0.2,0.2-0.4,0.4-0.7,0.5L174.6,37.5z"/>
		<path class="st1" d="M186,48.9l0-4.8l-2.3,3.9h-1.1l-2.3-3.8v4.7h-2.4v-9.1h2.1l3.2,5.3l3.1-5.3h2.1l0,9.1H186z"/>
		<path class="st1" d="M195.9,41.8h-2.8v-2h8.2v2h-2.8v7.1h-2.6V41.8z"/>
		<path class="st1" d="M206.2,46.4h-1.4v2.4h-2.6v-9.1h4.2c0.8,0,1.5,0.1,2.1,0.4s1.1,0.7,1.4,1.2c0.3,0.5,0.5,1.1,0.5,1.8
			c0,0.7-0.2,1.2-0.5,1.7c-0.3,0.5-0.7,0.9-1.3,1.2l2,2.9h-2.8L206.2,46.4z M207.4,42.1c-0.3-0.2-0.7-0.4-1.2-0.4h-1.4v2.7h1.4
			c0.5,0,0.9-0.1,1.2-0.3s0.4-0.6,0.4-1S207.7,42.4,207.4,42.1z"/>
		<path class="st1" d="M217.9,47.1h-3.8l-0.7,1.8h-2.6l4-9.1h2.5l4,9.1h-2.7L217.9,47.1z M217.2,45.2l-1.2-2.9l-1.2,2.9H217.2z"/>
	</g>
	<g>
		<path class="st2" d="M52.9,29.3c0,13.7-11.1,24.9-24.9,24.9C14.4,54.2,3.2,43,3.2,29.3c0-13.7,11.1-24.9,24.9-24.9
			C41.8,4.4,52.9,15.6,52.9,29.3"/>
		<path class="st3" d="M44.1,29.3c0,8.9-7.2,16-16,16c-8.9,0-16-7.2-16-16c0-8.9,7.2-16,16-16C36.9,13.3,44.1,20.4,44.1,29.3"/>
		<path class="st4" d="M28.1,46.7c-4.6,0-9-1.8-12.3-5.1c-3.3-3.3-5.1-7.6-5.1-12.3c0-4.6,1.8-9,5.1-12.3c3.3-3.3,7.6-5.1,12.3-5.1
			c4.6,0,9,1.8,12.3,5.1c3.3,3.3,5.1,7.6,5.1,12.3c0,4.6-1.8,9-5.1,12.3C37.1,44.9,32.7,46.7,28.1,46.7 M28.1,12.4
			c-9.3,0-16.9,7.6-16.9,16.9c0,9.3,7.6,16.9,16.9,16.9S45,38.6,45,29.3C45,20,37.4,12.4,28.1,12.4"/>
		<polygon class="st5" points="6.2,24.6 8.7,25.1 8.8,24.6 9.4,24.8 9.1,26 6.1,25.4 		"/>
		<rect x="7.7" y="22" transform="matrix(0.2735 -0.9619 0.9619 0.2735 -16.8239 24.9413)" class="st5" width="0.8" height="3.1"/>
		<path class="st5" d="M6.8,21.3L7,21.5l-0.1,0.3l-0.3-0.5l0.1-0.3l0.5-0.1l-0.1,0.3L6.8,21.3z M6.9,22.1l0.5-1.3L8,21.1l-0.2,0.5
			l0.6,0.2l0.2-0.5l0.6,0.2L8.9,22l0.6,0.2l0.2-0.6l0.6,0.2l-0.5,1.3L6.9,22.1z"/>
		<polygon class="st5" points="8.5,18.5 11.3,19.9 11,20.6 9.5,20.3 10.8,20.9 10.5,21.5 7.7,20.2 8,19.5 9.4,19.8 8.2,19.1 		"/>
		<path class="st5" d="M11.1,14.7l2.5,1.9l-0.4,0.6l-1.7-1.3l1.5,1.5l-0.3,0.4l-1.8-1l1.6,1.3l-0.4,0.6l-2.5-1.9l0.6-0.8
			c0.2,0.1,0.4,0.2,0.6,0.3l0.7,0.4l-1-1L11.1,14.7z"/>
		
			<rect x="12.7" y="13.3" transform="matrix(0.6932 -0.7208 0.7208 0.6932 -6.7212 14.0208)" class="st5" width="0.8" height="3.1"/>
		<polygon class="st5" points="14.2,11.8 16.2,14.2 15.7,14.6 14.4,13.8 15.3,14.9 14.8,15.4 12.8,13 13.3,12.6 14.6,13.3 
			13.6,12.3 		"/>
		<polygon class="st5" points="16.3,10.3 18.1,12.9 17.4,13.3 16.7,12.2 16.5,12.4 17.2,13.4 16.6,13.9 14.8,11.3 15.5,10.9 
			16.1,11.8 16.3,11.7 15.7,10.7 		"/>
		<polygon class="st5" points="19.9,8.5 21.2,11.3 20.4,11.7 19.9,10.5 19.7,10.6 20.2,11.8 19.5,12.1 18.2,9.2 19,8.9 19.4,9.9 
			19.6,9.8 19.2,8.8 		"/>
		<path class="st5" d="M22.4,8c0.1,0.1,0.2,0.2,0.2,0.3c0.1,0.1,0.1,0.3,0.2,0.6L23,9.4c0.1,0.3,0.1,0.5,0.2,0.6c0,0.1,0,0.3,0,0.4
			c0,0.1-0.1,0.2-0.2,0.3c-0.1,0.1-0.2,0.2-0.4,0.2C22.3,11,22.2,11,22,11c-0.1,0-0.3-0.1-0.4-0.1c-0.1-0.1-0.2-0.2-0.2-0.3
			c-0.1-0.1-0.1-0.3-0.2-0.6l-0.2-0.5c-0.1-0.3-0.1-0.5-0.2-0.6c0-0.1,0-0.3,0-0.4c0-0.1,0.1-0.2,0.2-0.3c0.1-0.1,0.2-0.2,0.4-0.2
			c0.2,0,0.3-0.1,0.5-0.1c0.1,0,0.1,0,0.2,0c0.1-0.1,0.1-0.1,0.1-0.2l-0.1,0L22,7.3l0.4-0.1l0,0.1c0,0.1,0.1,0.3,0.1,0.4
			C22.5,7.7,22.5,7.8,22.4,8C22.4,7.9,22.4,7.9,22.4,8 M21.9,8.7c0-0.1-0.1-0.2-0.1-0.3c0,0-0.1,0-0.1,0c0,0-0.1,0-0.1,0.1
			c0,0,0,0.1,0.1,0.3l0.4,1.4c0.1,0.2,0.1,0.3,0.1,0.3c0,0,0.1,0,0.1,0c0.1,0,0.1,0,0.1-0.1c0-0.1,0-0.2-0.1-0.3L21.9,8.7z
			 M22.8,11.1l0.1,0.4l-0.4,0.1l-0.1-0.4L22.8,11.1z"/>
		<path class="st5" d="M23.2,7.5L24,7.3c0.2,0,0.4-0.1,0.5,0c0.1,0,0.2,0,0.3,0.1C24.9,7.4,25,7.5,25,7.6c0,0.1,0.1,0.2,0.1,0.4
			l0,0.3c0,0.2,0,0.3,0,0.4c0,0.1-0.1,0.2-0.2,0.2c-0.1,0.1-0.2,0.1-0.4,0.1l-0.2,0l0.2,1.2l-0.8,0.1L23.2,7.5z M24.1,7.9l0.1,0.8
			c0,0,0,0,0.1,0c0.1,0,0.1,0,0.1-0.1c0,0,0-0.1,0-0.2l0-0.3c0-0.1,0-0.2-0.1-0.2C24.3,7.8,24.2,7.8,24.1,7.9"/>
		<polygon class="st5" points="28.6,7 28.6,7.6 28.1,7.6 28.2,10.1 27.3,10.1 27.3,7.6 26.8,7.6 26.8,7 		"/>
		<path class="st5" d="M30.6,7.1l0.2,3.2L30,10.2l0-0.6l-0.3,0l-0.1,0.6l-0.8-0.1L29.5,7L30.6,7.1z M30,9.1c0-0.4,0-0.8,0-1.3
			c-0.1,0.6-0.2,1-0.3,1.3L30,9.1z M30.7,6.6l-0.5,0.4l-0.3,0l0.3-0.4L30.7,6.6z"/>
		<path class="st5" d="M33.3,9l-0.8-0.2l0.1-0.5c0-0.2,0-0.3,0-0.3c0,0,0-0.1-0.1-0.1c-0.1,0-0.1,0-0.1,0c0,0-0.1,0.1-0.1,0.3
			L32,9.6c0,0.1,0,0.2,0,0.3c0,0,0,0.1,0.1,0.1c0.1,0,0.1,0,0.1,0c0,0,0.1-0.1,0.1-0.3l0.1-0.4l0.8,0.2l0,0.1
			c-0.1,0.3-0.1,0.5-0.2,0.7c-0.1,0.1-0.2,0.2-0.4,0.3c-0.2,0.1-0.4,0.1-0.6,0c-0.2,0-0.4-0.1-0.6-0.2c-0.1-0.1-0.2-0.3-0.2-0.4
			c0-0.2,0-0.4,0.1-0.7l0.2-0.9c0-0.2,0.1-0.4,0.1-0.5c0-0.1,0.1-0.2,0.2-0.3c0.1-0.1,0.2-0.1,0.4-0.2c0.1,0,0.3,0,0.5,0
			c0.2,0,0.4,0.1,0.6,0.3c0.1,0.1,0.2,0.3,0.2,0.4c0,0.1,0,0.4-0.1,0.6L33.3,9z"/>
		<path class="st5" d="M37.1,8.8L36.3,10l-0.2,1.8l-0.7-0.3c0-0.3,0.1-0.7,0.2-1.1c-0.1,0.2-0.2,0.4-0.3,0.6L35,11.4l-0.7-0.3
			l0.9-1.5l0.2-1.4l0.7,0.3c0,0.1,0,0.2-0.1,0.4C36,9,36,9.2,36,9.3l0.5-0.7L37.1,8.8z"/>
		<path class="st5" d="M39,9.8l-1,3l-0.7-0.4l0.2-0.5l-0.3-0.1l-0.3,0.5l-0.7-0.4l1.8-2.6L39,9.8z M37.7,11.4
			c0.1-0.3,0.3-0.7,0.5-1.2c-0.4,0.5-0.6,0.9-0.7,1.1L37.7,11.4z M39.1,9.2l0,0.3c0,0-0.1,0-0.1,0c0,0,0,0-0.1,0c-0.1,0-0.1,0-0.2,0
			l-0.1,0l-0.1-0.1l-0.1-0.1l-0.1-0.1l0,0l0,0c0,0-0.1,0-0.1,0c0,0-0.1,0-0.1,0.1l0-0.3c0,0,0,0,0.1,0c0,0,0,0,0.1,0
			c0.1,0,0.1,0,0.2,0c0,0,0,0,0,0c0,0,0,0,0.1,0l0.1,0l0,0l0.1,0.1c0,0,0.1,0.1,0.1,0.1C38.9,9.3,39,9.3,39.1,9.2L39.1,9.2z"/>
		<path class="st5" d="M42.5,12.2l-2.2,2.2l-1-0.8l1.5-2.8l0.7,0.5c-0.4,0.7-0.8,1.4-1.2,1.9c0.4-0.5,0.8-0.8,1.1-1.2l0.4-0.4
			L42.5,12.2z"/>
		<rect x="40.6" y="13.6" transform="matrix(0.6789 -0.7343 0.7343 0.6789 3.234 35.4818)" class="st5" width="3.1" height="0.8"/>
		<path class="st5" d="M42.2,16.6l-0.3,0.3l-0.3-0.3l0.3-0.3L42.2,16.6z M44.1,13.7l0.9,1l-0.5,0.4l-0.4-0.4l-0.4,0.4l0.3,0.4
			l-0.4,0.4l-0.3-0.4L42.8,16l0.4,0.4l-0.5,0.4l-1-1L44.1,13.7z M44.8,14l-0.3,0l-0.2-0.3l0.6-0.1l0.2,0.3L45,14.5l-0.2-0.3L44.8,14
			z"/>
		<polygon class="st5" points="46.4,16.5 45.9,16.9 45.6,16.5 43.6,18 43.2,17.4 45.1,15.9 44.9,15.5 45.4,15.1 		"/>
		<polygon class="st5" points="48.3,19.8 45.5,21.2 45.2,20.6 46.3,19.6 45,20.2 44.7,19.6 47.5,18.2 47.8,18.8 46.8,19.8 48,19.2 
					"/>
		<path class="st5" d="M49.1,21.8l-2.8,1.6l-0.3-0.8l0.5-0.2l-0.1-0.3L46,22.3l-0.3-0.8l3.1-0.7L49.1,21.8z M47.1,22.2
			c0.3-0.2,0.7-0.4,1.2-0.6c-0.6,0.1-1,0.2-1.3,0.3L47.1,22.2z"/>
		<path class="st5" d="M50.1,25.3l-3,0.7l-0.2-0.7l2.1-0.5l-2.1,0.2l-0.1-0.5l1.9-0.8l-2,0.5l-0.2-0.7l3-0.7l0.2,1
			c-0.2,0.1-0.4,0.2-0.6,0.2l-0.7,0.3l1.5-0.2L50.1,25.3z"/>
		<path class="st6" d="M48.5,32.1c0,0-1.5-2.1,0.3-4.4C48.8,27.7,50.4,29.8,48.5,32.1"/>
		<path class="st6" d="M48.2,33c0,0,1.3-2,2.3-2.5c0,0,0.6,3.3-2.6,4.2c0,0-1.4-1.5-0.8-3.8C47,30.7,48.3,31.6,48.2,33"/>
		<path class="st6" d="M47.6,35.8c0,0,1.7-1.7,2.5-2.1c0,0,0.3,3.1-2.9,3.5c0,0-1.4-1.2-0.5-3.6C46.6,33.6,47.7,34.3,47.6,35.8"/>
		<path class="st6" d="M46.6,38.1c0,0,1.7-1.2,2.9-1.6c0,0-0.3,3.1-3.6,3c0,0-1.1-1.5,0.1-3.7C45.9,35.8,46.7,36.7,46.6,38.1"/>
		<path class="st6" d="M45.5,40.6c0,0,0.6-0.8,2.6-1.2c0,0-0.6,3-3.7,2.5c0,0-0.8-1.9,0.6-3.7C44.9,38.2,45.6,39.2,45.5,40.6"/>
		<path class="st6" d="M44.1,42.8c0,0,0.7-0.6,2.8-0.9c0,0-1.2,3.1-4,2.1c0,0-0.5-2.3,0.8-3.6C43.7,40.4,44.3,41.6,44.1,42.8"/>
		<path class="st6" d="M42.4,44.7c0,0,0.6-0.4,2.9-0.3c0,0-1.5,2.9-4.3,1.2c0,0-0.1-2.3,1.6-3.4C42.5,42.3,42.8,43.5,42.4,44.7"/>
		<path class="st6" d="M40.2,46.3c0,0,0.9-0.3,3.1,0.1c0,0-2.1,2.4-4.5,0.6c0,0,0-2.1,1.7-3.1C40.6,43.9,40.8,45.5,40.2,46.3"/>
		<path class="st6" d="M38.1,47.5c0,0,0.9-0.2,3,0.5c0,0-2.4,2-4.5-0.1c0,0,0.4-2.2,2.2-2.9C38.8,45.1,38.9,47,38.1,47.5"/>
		<path class="st6" d="M35.7,48.1c0,0,0.9,0,2.7,1.2c0,0-2.7,1.3-4.3-1.1c0,0,0.9-2,2.8-2.3C36.9,45.9,36.6,47.7,35.7,48.1"/>
		<path class="st6" d="M33.2,48c0,0,1,0.3,2.7,2.2c0,0-3.4,0.6-4.4-2.6c0,0,1.6-1.9,3.8-1.6C35.2,45.9,34.2,47.8,33.2,48"/>
		<path class="st6" d="M7.7,32.1c0,0,1.5-2.1-0.3-4.4C7.4,27.7,5.8,29.8,7.7,32.1"/>
		<path class="st6" d="M8,33c0,0-1.3-2-2.3-2.5c0,0-0.6,3.3,2.6,4.2c0,0,1.4-1.5,0.8-3.8C9.2,30.7,7.9,31.6,8,33"/>
		<path class="st6" d="M8.6,35.8c0,0-1.7-1.7-2.5-2.1c0,0-0.3,3.1,2.9,3.5c0,0,1.4-1.2,0.5-3.6C9.5,33.6,8.5,34.3,8.6,35.8"/>
		<path class="st6" d="M9.6,38.1c0,0-1.7-1.2-2.9-1.6c0,0,0.3,3.1,3.6,3c0,0,1.1-1.5-0.1-3.7C10.2,35.8,9.4,36.7,9.6,38.1"/>
		<path class="st6" d="M10.7,40.6c0,0-0.6-0.8-2.6-1.2c0,0,0.6,3,3.7,2.5c0,0,0.8-1.9-0.6-3.7C11.2,38.2,10.6,39.2,10.7,40.6"/>
		<path class="st6" d="M12.1,42.8c0,0-0.7-0.6-2.8-0.9c0,0,1.2,3.1,4,2.1c0,0,0.5-2.3-0.8-3.6C12.5,40.4,11.9,41.6,12.1,42.8"/>
		<path class="st6" d="M13.8,44.7c0,0-0.6-0.4-2.9-0.3c0,0,1.5,2.9,4.3,1.2c0,0,0.1-2.3-1.6-3.4C13.7,42.3,13.4,43.5,13.8,44.7"/>
		<path class="st6" d="M15.9,46.3c0,0-0.9-0.3-3.1,0.1c0,0,2.1,2.4,4.5,0.6c0,0,0-2.1-1.7-3.1C15.6,43.9,15.4,45.5,15.9,46.3"/>
		<path class="st6" d="M18,47.5c0,0-0.9-0.2-3,0.5c0,0,2.4,2,4.5-0.1c0,0-0.4-2.2-2.2-2.9C17.4,45.1,17.3,47,18,47.5"/>
		<path class="st6" d="M20.5,48.1c0,0-0.9,0-2.7,1.2c0,0,2.7,1.3,4.3-1.1c0,0-0.9-2-2.8-2.3C19.3,45.9,19.6,47.7,20.5,48.1"/>
		<path class="st6" d="M23,48c0,0-1,0.3-2.7,2.2c0,0,3.4,0.6,4.4-2.6c0,0-1.6-1.9-3.8-1.6C21,45.9,21.9,47.8,23,48"/>
		<path class="st4" d="M29.3,46.2c-0.4-0.1-0.8-0.1-1.2-0.1c-0.4,0-0.8,0-1.2,0.1c-3.4,0.5-6.2,3-7.1,6.3c0.9,0.3,1.9,0.6,2.9,0.8
			c0.5-2.1,2.2-3.7,4.3-4.1c0.4-0.1,0.8-0.1,1.2-0.1c0.4,0,0.8,0,1.1,0.1c2.1,0.4,3.8,2,4.4,4.1c1-0.2,2-0.5,2.9-0.8
			C35.6,49.2,32.8,46.7,29.3,46.2"/>
		<path class="st4" d="M29.2,49.7c-0.4-0.1-0.7-0.1-1.1-0.1c-0.4,0-0.8,0-1.2,0.1c-1.9,0.4-3.4,1.9-3.9,3.8c0.5,0.1,1,0.2,1.6,0.3
			c0.3-1.1,1.2-2,2.3-2.4c0.4-0.1,0.7-0.2,1.1-0.2c0.4,0,0.7,0.1,1,0.2c1.2,0.3,2.1,1.3,2.4,2.4c0.5-0.1,1.1-0.2,1.6-0.3
			C32.6,51.6,31.1,50.1,29.2,49.7"/>
		<path class="st4" d="M39,49.3L37.5,50c-0.3-0.5-0.6-1-0.9-1.4l1.5-1.4l-1.9-1.9l-1.3,1.4c-0.4-0.4-0.9-0.7-1.4-1l0.7-1.8L31.6,43
			l-0.6,1.7c-0.5-0.2-1.1-0.3-1.7-0.3l0.1-1.7h0h0h-2.6h0h0l0.1,1.7c-0.6,0.1-1.1,0.2-1.7,0.3L24.5,43L22,43.9l0.7,1.8
			c-0.5,0.3-1,0.6-1.4,1L20,45.3l-1.9,1.9l1.5,1.4c-0.3,0.5-0.6,0.9-0.9,1.4l-1.5-0.7L16.4,51c0.9,0.5,1.9,0.9,2.9,1.3
			c1-3.5,3.9-6.1,7.5-6.6c0.4-0.1,0.8-0.1,1.3-0.1c0.4,0,0.8,0,1.2,0.1c3.6,0.5,6.6,3.2,7.5,6.6c1-0.4,2-0.8,2.9-1.3L39,49.3z"/>
		<path class="st2" d="M29.3,45.7c-0.4-0.1-0.8-0.1-1.2-0.1c-0.4,0-0.8,0-1.3,0.1c-3.6,0.5-6.6,3.2-7.5,6.6c0.1,0.1,0.3,0.1,0.4,0.2
			c0.9-3.3,3.7-5.9,7.1-6.3c0.4-0.1,0.8-0.1,1.2-0.1c0.4,0,0.8,0,1.2,0.1c3.5,0.5,6.3,3,7.1,6.4c0.1-0.1,0.3-0.1,0.4-0.2
			C35.9,48.9,33,46.2,29.3,45.7"/>
		<path class="st2" d="M29.2,49.2c-0.4-0.1-0.7-0.1-1.1-0.1c-0.4,0-0.8,0-1.2,0.1c-2.1,0.4-3.8,2.1-4.3,4.1c0.1,0,0.3,0.1,0.4,0.1
			c0.5-1.9,2-3.3,3.9-3.8c0.4-0.1,0.8-0.1,1.2-0.1c0.4,0,0.7,0,1.1,0.1c1.9,0.4,3.4,1.9,3.9,3.8c0.1,0,0.3-0.1,0.4-0.1
			C33,51.3,31.3,49.7,29.2,49.2"/>
		<path class="st6" d="M29.1,51.3c-0.3-0.1-0.7-0.2-1-0.2c-0.4,0-0.8,0.1-1.1,0.2c-1.1,0.4-2,1.3-2.3,2.4c0.8,0.1,1.6,0.2,2.4,0.2
			c0.4,0,0.7,0,1.1,0c0.3,0,0.6,0,0.9,0c0.9,0,1.7-0.1,2.5-0.2C31.2,52.6,30.3,51.7,29.1,51.3"/>
		<path class="st5" d="M28.2,22.9c-0.6-1.3-1.1-2.5-1.6-3.8c-0.2-0.4-0.4-0.8-0.5-1.3c-0.2-1.1,0.4-2.4,1.7-2.6
			c0.9-0.2,1.9,0.4,2.2,1.3c0.3,0.8,0.1,1.5-0.1,2.2c-0.5,1.3-1,2.6-1.5,3.9C28.2,22.7,28.2,22.8,28.2,22.9"/>
		<path class="st5" d="M28.5,23.1c0.2-0.4,0.3-0.8,0.5-1.2c0.5-1.2,0.9-2.4,1.5-3.6c0.6-1.3,2.2-1.7,3.3-0.9c0.8,0.5,1,1.7,0.5,2.6
			c-0.4,0.7-1,1.1-1.7,1.3c-1.3,0.6-2.6,1.1-3.8,1.7C28.7,23,28.6,23,28.5,23.1"/>
		<path class="st5" d="M27.7,23c-0.5-0.2-1-0.4-1.5-0.6C25.1,21.9,24,21.5,23,21c-1.2-0.5-1.7-2-1.1-3.1c0.6-1.1,2.1-1.4,3.2-0.5
			c0.5,0.4,0.8,1,1,1.6c0.5,1.2,1,2.4,1.5,3.7C27.6,22.8,27.6,22.8,27.7,23"/>
		<path class="st5" d="M27.6,23.4c-0.7,0.3-1.3,0.5-1.9,0.8c-0.9,0.4-1.7,0.7-2.6,1.1c-0.9,0.3-1.8,0.3-2.6-0.4
			c-0.6-0.5-0.8-1.2-0.6-2c0.2-0.8,0.7-1.3,1.5-1.5c0.5-0.2,1.1-0.1,1.6,0.1c0.8,0.3,1.5,0.6,2.3,0.9C26,22.8,26.8,23.1,27.6,23.4"
			/>
		<path class="st5" d="M28.6,23.4c1-0.4,1.9-0.8,2.8-1.2c0.6-0.3,1.2-0.5,1.8-0.7c0.9-0.4,1.7-0.3,2.4,0.3c1.3,1,1,2.8-0.5,3.5
			c-0.7,0.3-1.4,0.2-2.1,0c-1.4-0.5-2.8-1.1-4.2-1.6C28.8,23.5,28.7,23.5,28.6,23.4"/>
		<path class="st6" d="M28.1,31.7c-1.3-4.2-6.9-4.3-7.4-4.3l0.6,2.4c6.5-0.3,6.5,6.7,6.5,6.7v2.6h0.3h0h0.3v-2.6c0,0,0-7,6.5-6.7
			l0.6-2.4C34.9,27.3,29.3,27.4,28.1,31.7"/>
		<path class="st6" d="M28.7,36.3v2.8h0.5c0-6.7,4.4-6.7,5-6.7l0.6-2.4C28.9,29.8,28.7,36.3,28.7,36.3"/>
		<path class="st6" d="M29.6,39.1h0.5c0-4.5,3.1-4,3.5-4l0.6-2.3C29.5,32.7,29.6,38.4,29.6,39.1"/>
		<path class="st6" d="M21.4,30.1l0.6,2.4c0.6,0,5,0,5,6.7h0.5v-2.8C27.4,36.3,27.3,29.8,21.4,30.1"/>
		<path class="st6" d="M22.1,32.8l0.6,2.3c0.4-0.1,3.4-0.5,3.5,4h0.5C26.6,38.4,26.6,32.7,22.1,32.8"/>
		<polygon class="st2" points="24.4,47.4 25,47.2 25.9,48.4 25.8,46.9 26.4,46.7 26.4,48.8 25.7,49.1 		"/>
		<path class="st2" d="M28.5,47.8l0.5,0.2c0,0.2-0.1,0.3-0.2,0.4c-0.1,0.1-0.2,0.2-0.3,0.2c-0.1,0.1-0.3,0.1-0.4,0.1
			c-0.2,0-0.4,0-0.5-0.1c-0.1-0.1-0.3-0.2-0.4-0.3c-0.1-0.2-0.2-0.4-0.2-0.6c0-0.3,0.1-0.6,0.2-0.8c0.2-0.2,0.4-0.3,0.7-0.3
			c0.2,0,0.4,0,0.6,0.1c0.1,0.1,0.3,0.3,0.3,0.5l-0.5,0.1c0-0.1,0-0.1-0.1-0.1c0,0-0.1-0.1-0.1-0.1c0,0-0.1,0-0.2,0
			c-0.1,0-0.2,0.1-0.3,0.2c-0.1,0.1-0.1,0.2-0.1,0.4c0,0.2,0,0.4,0.1,0.4c0.1,0.1,0.2,0.1,0.3,0.1c0.1,0,0.2,0,0.3-0.1
			C28.4,48,28.4,47.9,28.5,47.8"/>
		<path class="st2" d="M30.5,48.7l-0.7-0.2l-0.2,0.3l-0.6-0.2l1.3-1.6l0.6,0.2l0.1,2.1l-0.6-0.2L30.5,48.7z M30.6,48.3l0-0.7
			l-0.4,0.6L30.6,48.3z"/>
		<path class="st4" d="M28.1,54.4c-3.4,0-6.7-0.7-9.8-2c-3-1.3-5.7-3.1-8-5.4c-2.3-2.3-4.1-5-5.4-8c-1.3-3.1-2-6.4-2-9.8
			c0-3.4,0.7-6.7,2-9.8c1.3-3,3.1-5.7,5.4-8c2.3-2.3,5-4.1,8-5.4c3.1-1.3,6.4-2,9.8-2c3.4,0,6.7,0.7,9.8,2c3,1.3,5.7,3.1,8,5.4
			c2.3,2.3,4.1,5,5.4,8c1.3,3.1,2,6.4,2,9.8c0,3.4-0.7,6.7-2,9.8c-1.3,3-3.1,5.7-5.4,8c-2.3,2.3-5,4.1-8,5.4
			C34.8,53.8,31.5,54.4,28.1,54.4 M28.1,5.1C14.7,5.1,3.9,15.9,3.9,29.3c0,13.4,10.9,24.2,24.2,24.2s24.2-10.9,24.2-24.2
			C52.3,15.9,41.4,5.1,28.1,5.1"/>
	</g>
	<rect x="90.9" y="33.4" class="st7" width="127.6" height="0.9"/>
</g>
</svg>
